<?xml version="1.0" encoding="utf-8"?>
<!-- Generator: Adobe Illustrator 19.2.1, SVG Export Plug-In . SVG Version: 6.00 Build 0)  -->
<svg version="1.1" id="Layer_1" xmlns="http://www.w3.org/2000/svg" xmlns:xlink="http://www.w3.org/1999/xlink" x="0px" y="0px"
	 viewBox="0 0 225 52" style="enable-background:new 0 0 225 52;" xml:space="preserve">
<style type="text/css">
	.st0{font-family:'OpenSans-ExtraBold';}
	.st1{font-size:38px;}
	.st2{fill:#5E6B75;}
	.st3{fill:#4D5961;}
	.st4{fill:#F6E266;}
	.st5{fill:#EAB14D;}
	.st6{fill:#454045;}
</style>
<text transform="matrix(0.6769 0 0 1 53.001 39.5475)" class="st0 st1">HAJJ+UMRAH</text>
<g>
	<path class="st2" d="M4.5,8.7h45.9v36.6H4.5V8.7z"/>
	<path class="st3" d="M4.5,8.7h22.9v36.6H4.5V8.7z"/>
	<path class="st4" d="M4.5,12.9h45.9v5H4.5V12.9z"/>
	<path class="st5" d="M4.5,12.9h22.9v5H4.5V12.9z"/>
	<path class="st4" d="M21.1,20.5h10.5v5H21.1L21.1,20.5z"/>
	<path class="st5" d="M21.1,20.5h6.4v5h-6.4V20.5z"/>
	<path class="st5" d="M7.8,20.5h10.4v21H7.8V20.5z"/>
	<path class="st6" d="M10,41.5l2.9-11.9L16,41.5H10z"/>
	<g>
		<path class="st4" d="M42.2,20.5h8.2v5h-8.2V20.5z"/>
		<path class="st4" d="M37.2,25.5h-1c-1.4,0-2.5-1.1-2.5-2.5c0-1.4,1.1-2.5,2.5-2.5h1c1.4,0,2.5,1.1,2.5,2.5
			C39.7,24.4,38.6,25.5,37.2,25.5z"/>
	</g>
</g>
</svg>
