<?xml version="1.0" encoding="utf-8"?>
<!-- Generator: Adobe Illustrator 19.2.1, SVG Export Plug-In . SVG Version: 6.00 Build 0)  -->
<svg version="1.1" id="Layer_1" xmlns="http://www.w3.org/2000/svg" xmlns:xlink="http://www.w3.org/1999/xlink" x="0px" y="0px"
	 viewBox="0 0 200 200" style="enable-background:new 0 0 200 200;" xml:space="preserve">
<style type="text/css">
	.st0{fill:#FFFFFF;}
</style>
<g>
	<g transform="matrix(0.900867223739624, 0, 0, 0.900867223739624, 221.30869356782398, -38.20735021739932)">
		<g>
			<g>
				<path class="st0" d="M-33.8,153.6c0-13.7-25.5-33.1-44.9-45.9c-3.8-2.4-8.1,2.3-5.3,5.8c10.6,13.3,22.6,30.3,22.6,40.1
					s-12,26.8-22.6,40.1c-2.8,3.5,1.5,8.4,5.3,5.8C-59.3,186.6-33.8,167.3-33.8,153.6z"/>
			</g>
			<g>
				<path class="st0" d="M-231.6,153.4c0,13.7,25.5,33.1,44.9,45.9c3.8,2.4,8.1-2.3,5.3-5.8c-10.6-13.3-22.6-30.3-22.6-40.1
					s12-26.8,22.6-40.1c2.8-3.5-1.5-8.4-5.3-5.8C-206.2,120.3-231.6,139.7-231.6,153.4z"/>
			</g>
		</g>
		<g>
			<g>
				<path class="st0" d="M-132.7,252c13.7,0,33.1-25.5,45.9-44.9c2.4-3.8-2.3-8.1-5.8-5.3c-13.3,10.6-30.3,22.6-40.1,22.6
					s-26.8-12-40.1-22.6c-3.5-2.8-8.4,1.5-5.8,5.3C-165.9,226.6-146.6,252-132.7,252z"/>
			</g>
			<g>
				<path class="st0" d="M-132.7,54.8c-13.7,0-33.1,25.5-45.9,44.9c-2.4,3.8,2.3,8.1,5.8,5.3c13.3-10.6,30.3-22.6,40.1-22.6
					s26.8,12,40.1,22.6c3.5,2.8,8.4-1.5,5.8-5.3C-99.6,80.3-118.9,54.8-132.7,54.8z"/>
			</g>
		</g>
	</g>
	<path class="st0" d="M77.5,69l-0.2,36.6c-0.1,8,2.2,14.2,6.6,18.6c4.5,4.4,11,6.6,19.5,6.7c8.3,0.1,14.7-2,19.2-6.2
		c4.5-4.2,6.8-10.3,6.8-18.3l0.3-37l-16.5-0.1l-0.2,35.7c0,4.3-0.9,7.4-2.5,9.4c-1.6,1.9-4,2.9-7.1,2.9c-3.4,0-5.8-1-7.3-2.9
		c-1.5-1.9-2.2-5.1-2.2-9.5L94,69.2L77.5,69z"/>
</g>
</svg>
