<?xml version="1.0" encoding="utf-8"?>
<!-- Generator: Adobe Illustrator 19.2.1, SVG Export Plug-In . SVG Version: 6.00 Build 0)  -->
<svg version="1.1" id="Layer_1" xmlns="http://www.w3.org/2000/svg" xmlns:xlink="http://www.w3.org/1999/xlink" x="0px" y="0px"
	 viewBox="0 0 367 124" style="enable-background:new 0 0 367 124;" xml:space="preserve">
<style type="text/css">
	.st0{fill:#FFFFFF;}
</style>
<path class="st0" d="M96.8,28.1v41.2c0,8.9-2.6,15.9-7.7,20.8C84,95,76.8,97.5,67.2,97.5c-9.4,0-16.6-2.3-21.5-7.2
	s-7.5-11.6-7.5-20.6V28.1h18.5v40.2c0,4.8,0.9,8.4,2.7,10.5c1.9,2.2,4.4,3.2,8,3.2c3.8,0,6.6-1.1,8.2-3.2c1.7-2.2,2.6-5.7,2.6-10.6
	v-40h18.6V28.1z M175.5,60.9c0,11.4-3.1,20.3-9.4,26.5s-15.1,9.3-26.6,9.3h-22.1V28.1h23.7c11,0,19.4,2.8,25.5,8.4
	C172.5,42.1,175.5,50.2,175.5,60.9 M156.4,61.5c0-6.3-1.2-10.9-3.7-14s-6.3-4.6-11.2-4.6H136v38.3h4.1c5.6,0,9.8-1.6,12.4-4.9
	C155,73.1,156.4,68.2,156.4,61.5z M252.3,28.1v41.2c0,8.9-2.6,15.9-7.7,20.8c-5.1,4.9-12.4,7.4-21.9,7.4c-9.4,0-16.6-2.3-21.5-7.2
	s-7.5-11.6-7.5-20.6V28.1h18.5v40.2c0,4.8,0.9,8.4,2.7,10.5c1.9,2.2,4.4,3.2,8,3.2c3.8,0,6.6-1.1,8.2-3.2c1.7-2.2,2.6-5.7,2.6-10.6
	v-40h18.6V28.1z M273,28.1h23.9c9.3,0,16.2,1.4,20.8,4.1c4.4,2.7,6.8,7,6.8,12.9c0,3.8-1,7.2-3,9.8c-2,2.7-4.6,4.4-7.8,5.3v0.5
	c4.2,1.1,7.3,3,9.3,5.6c1.9,2.6,2.8,6.1,2.8,10.3c0,6.2-2.3,11.1-7,14.7s-11,5.3-19,5.3H273V28.1 M291.5,54.3h5.6
	c2.6,0,4.7-0.5,6.2-1.6s2.2-2.7,2.2-4.8c0-3.8-2.8-5.8-8.7-5.8h-5.2v12.2 M291.5,67.8v14.3h6.6c5.8,0,8.7-2.5,8.7-7.3
	c0-2.2-0.7-4.1-2.3-5.2c-1.5-1.2-3.8-1.9-6.7-1.9L291.5,67.8L291.5,67.8z"/>
</svg>
