<?xml version="1.0" encoding="utf-8"?>
<!-- Generator: Adobe Illustrator 19.2.1, SVG Export Plug-In . SVG Version: 6.00 Build 0)  -->
<svg version="1.1" id="Layer_1" xmlns="http://www.w3.org/2000/svg" xmlns:xlink="http://www.w3.org/1999/xlink" x="0px" y="0px"
	 viewBox="0 0 225 52" style="enable-background:new 0 0 225 52;" xml:space="preserve">
<style type="text/css">
	.st0{fill:#336699;}
	.st1{fill:#000033;}
	.st2{font-family:'OpenSans-ExtraBold';}
	.st3{font-size:58px;}
</style>
<g>
	<g transform="matrix(0.900867223739624, 0, 0, 0.900867223739624, 221.30869356782398, -38.20735021739932)">
		<g>
			<g>
				<path class="st0" d="M-188.7,73.5c0-3.7-6.9-9-12.2-12.4c-1-0.7-2.2,0.6-1.4,1.6c2.9,3.6,6.1,8.2,6.1,10.9s-3.3,7.3-6.1,10.9
					c-0.8,0.9,0.4,2.3,1.4,1.6C-195.6,82.4-188.7,77.2-188.7,73.5z"/>
			</g>
			<g>
				<path class="st0" d="M-242.3,73.4c0,3.7,6.9,9,12.2,12.4c1,0.7,2.2-0.6,1.4-1.6c-2.9-3.6-6.1-8.2-6.1-10.9s3.3-7.3,6.1-10.9
					c0.8-0.9-0.4-2.3-1.4-1.6C-235.4,64.4-242.3,69.7-242.3,73.4z"/>
			</g>
		</g>
		<g>
			<g>
				<path class="st0" d="M-215.5,100.1c3.7,0,9-6.9,12.4-12.2c0.7-1-0.6-2.2-1.6-1.4c-3.6,2.9-8.2,6.1-10.9,6.1s-7.3-3.3-10.9-6.1
					c-0.9-0.8-2.3,0.4-1.6,1.4C-224.5,93.2-219.3,100.1-215.5,100.1z"/>
			</g>
			<g>
				<path class="st0" d="M-215.5,46.7c-3.7,0-9,6.9-12.4,12.2c-0.7,1,0.6,2.2,1.6,1.4c3.6-2.9,8.2-6.1,10.9-6.1s7.3,3.3,10.9,6.1
					c0.9,0.8,2.3-0.4,1.6-1.4C-206.6,53.6-211.8,46.7-215.5,46.7z"/>
			</g>
		</g>
	</g>
	<path class="st0" d="M20.6,19.5l-0.1,9.9c0,2.2,0.6,3.8,1.8,5c1.2,1.2,3,1.8,5.3,1.8c2.2,0,4-0.5,5.2-1.7c1.2-1.1,1.8-2.8,1.8-5
		l0.1-10l-4.5,0l-0.1,9.7c0,1.2-0.2,2-0.7,2.5c-0.4,0.5-1.1,0.8-1.9,0.8c-0.9,0-1.6-0.3-2-0.8c-0.4-0.5-0.6-1.4-0.6-2.6l0-9.7
		L20.6,19.5z"/>
</g>
<text transform="matrix(1.05 0 0 1 52.0493 48.7615)" class="st1 st2 st3">Udub</text>
</svg>
