<?xml version="1.0" encoding="utf-8"?>
<!-- Generator: Adobe Illustrator 19.2.1, SVG Export Plug-In . SVG Version: 6.00 Build 0)  -->
<svg version="1.1" id="Layer_1" xmlns="http://www.w3.org/2000/svg" xmlns:xlink="http://www.w3.org/1999/xlink" x="0px" y="0px"
	 viewBox="0 0 691.8 106" style="enable-background:new 0 0 691.8 106;" xml:space="preserve">
<style type="text/css">
	.st0{fill:#FFFFFF;}
	.st1{fill:#FFCC66;}
	.st2{fill:#5E6B75;}
	.st3{fill:#4D5961;}
	.st4{fill:#F6E266;}
	.st5{fill:#EAB14D;}
	.st6{fill:#454045;}
</style>
<g>
	<path class="st0" d="M185.4,59.6c-2.7-0.8-7.9-2.1-12.7-5.5c-6.7-4.7-10.4-11.5-10.8-19.9c-0.4-7.1,1.8-13.2,6.1-18
		c6.2-6.8,15.2-8.7,19.5-8.7c12.2,0,19,4.7,25.1,8.8l2.7,1.9l-8.7,15l-3-2c-5.4-3.7-8.8-6-16.1-6c-1.1,0-5.3,0.9-7.4,3.3
		c-0.7,0.8-1.6,2.1-1.4,5c0.1,4.5,3.1,7.1,10.8,9.1c1,0.3,1.7,0.5,2.4,0.8c8,2.9,14.2,6.8,18.5,11.7c4.3,5,6.6,11,6.6,17.3
		c0,6.2-2.5,12.6-6.7,17.5c-4.9,5.8-11.7,9.1-19.2,9.1c-3.7,0-8.7-0.3-14.7-2.1c-7.5-2.5-14.2-6.9-20-13.4l12.2-12.1
		c8.8,10,18.8,10,22.5,10c6.9,0,9.2-6.7,9.2-8.9c0-4.8-5.1-9.2-13.9-12.3l-0.4-0.1L185.4,59.6z"/>
	<path class="st0" d="M289.1,8.6v17.6h-23.2V97h-16.7V26.3h-23.3V8.6L289.1,8.6z"/>
	<path class="st0" d="M346.8,80.6h-34.7L304.3,97h-18.8l42.7-88.3h4.9L372.7,97h-18.5L346.8,80.6z M338.9,63l-8.7-19.7L320.8,63
		H338.9z"/>
	<path class="st0" d="M434.8,30.1C418.6,19,394.1,29.3,394.1,53c0,24.8,25.9,34.8,41.7,22.2l10.8,13c-7.5,6.6-17.2,10.6-27.7,10.6
		c-23.9,0-43.4-20.5-43.4-45.7S395,7.4,418.9,7.4c10,0,19.4,3.7,26.8,9.7L434.8,30.1z"/>
	<path class="st0" d="M481.8,56.5l-6.5,6.9v33.4h-16.7V8.6h16.7v28.5l24.5-28.5h22.6l-29.3,34.5l30,53.7h-20L481.8,56.5z"/>
	<path class="st0" d="M561,81.9c5.6,0,10.3-4.7,10.3-10.6s-4.7-10.7-10.3-10.7h-27.4v-52h22.8c13.5,0,24.5,11.6,24.5,25.8
		c0,5.4-1.6,10.3-4.3,14.5c6.1,4.9,9.9,12.6,9.9,21.2c0,14.9-11.4,26.7-25.3,26.7h-6v-15L561,81.9L561,81.9z M555.7,43.5
		c4.7,0,9.7-4,9.7-10.2s-5-10-9.7-10h-7.3v20.2H555.7z"/>
	<path class="st0" d="M601.1,96.9V8.6h16.7v88.2h-16.7V96.9z"/>
	<path class="st0" d="M691.8,8.6v17.6h-23.2V97h-16.7V26.3h-23.3V8.6L691.8,8.6z"/>
</g>
<path class="st1" d="M549.1,96.9h-15.5v-15h15.5V96.9z"/>
<g>
	<path class="st2" d="M8.5,10.4h107.4v85.7H8.5V10.4z"/>
	<path class="st3" d="M8.5,10.4h53.7v85.7H8.5V10.4z"/>
	<path class="st4" d="M8.5,20.3h107.4v11.6H8.5V20.3z"/>
	<path class="st5" d="M8.5,20.3h53.7v11.6H8.5V20.3z"/>
	<path class="st4" d="M47.3,38.1h24.5v11.6H47.3L47.3,38.1z"/>
	<path class="st5" d="M47.3,38.1h14.9v11.6H47.3V38.1z"/>
	<path class="st5" d="M16.2,38.1h24.3v49.2H16.2L16.2,38.1z"/>
	<path class="st6" d="M21.2,87.3l6.9-27.8l7.4,27.8H21.2z"/>
	<g>
		<path class="st4" d="M96.7,38.1h19.2v11.6H96.7V38.1z"/>
		<path class="st4" d="M85.1,49.7h-2.4c-3.2,0-5.8-2.6-5.8-5.8s2.6-5.8,5.8-5.8h2.4c3.2,0,5.8,2.6,5.8,5.8
			C90.9,47.1,88.3,49.7,85.1,49.7z"/>
	</g>
</g>
</svg>
