<?xml version="1.0" encoding="utf-8"?>
<!-- Generator: Adobe Illustrator 19.2.1, SVG Export Plug-In . SVG Version: 6.00 Build 0)  -->
<svg version="1.1" id="Layer_1" xmlns="http://www.w3.org/2000/svg" xmlns:xlink="http://www.w3.org/1999/xlink" x="0px" y="0px"
	 viewBox="0 0 691.8 106" style="enable-background:new 0 0 691.8 106;" xml:space="preserve">
<style type="text/css">
	.st0{fill:#505050;}
	.st1{fill:#373737;}
	.st2{fill:#FFE132;}
	.st3{fill:#FFCC00;}
	.st4{fill:#646464;}
	.st5{fill:#FAC80F;}
</style>
<path class="st0" d="M5.9,15v75.4c0,1.4,1,2.7,2.4,3l12.2,3.1L33,90.2l14.6,13.1l10.7,2.7c0.2,0.1,0.5,0.1,0.8,0.1s0.5,0,0.8-0.1
	l50-12.5c1.4-0.3,2.4-1.6,2.4-3V15L59,28.3L5.9,15z"/>
<path class="st1" d="M59,28.3v77.8c0.3,0,0.5,0,0.8-0.1l50-12.5c1.4-0.3,2.4-1.6,2.4-3V15L59,28.3z"/>
<path class="st2" d="M5.9,23.5v18.9l52.4,13.1c0.2,0.1,0.5,0.1,0.8,0.1s0.5,0,0.8-0.1l52.4-13.1V23.5L59,36.8L5.9,23.5z"/>
<path class="st3" d="M59.8,55.5l52.4-13.1V23.5L59,36.8v18.9C59.3,55.6,59.6,55.6,59.8,55.5z"/>
<path class="st4" d="M59,30.6c-0.3,0-0.5,0-0.8-0.1L8.3,18c-1.4-0.3-2.4-1.6-2.4-3s1-2.7,2.4-3l50-12.5c0.5-0.1,1-0.1,1.5,0l50,12.5
	c1.4,0.3,2.4,1.6,2.4,3s-1,2.7-2.4,3l-50,12.5C59.6,30.6,59.3,30.6,59,30.6z"/>
<path class="st0" d="M59.8,30.5l50-12.5c1.4-0.3,2.4-1.6,2.4-3s-1-2.7-2.4-3l-50-12.5c-0.2-0.1-0.5-0.1-0.8-0.1v31.3
	C59.3,30.6,59.6,30.6,59.8,30.5z"/>
<path class="st2" d="M45.2,69.2L24.4,64c-0.9-0.2-1.9,0-2.7,0.6c-0.8,0.6-1.2,1.5-1.2,2.5v29.5l27.1,6.8V72.2
	C47.6,70.8,46.6,69.5,45.2,69.2z"/>
<path class="st5" d="M26.7,98.1l14.6,3.6V74.6L26.7,71V98.1z"/>
<path d="M197.1,14.7v67.1h-12.8V55.2h-33.1v26.7h-12.8V14.7h12.8v29.1h33.1V14.7H197.1z"/>
<path d="M204.9,81.8l34.3-67h1.3l34.3,67h-13.9l-5.2-10.5h-31.6l-5.1,10.5H204.9z M230.2,60.1h19.2l-9.5-20.3L230.2,60.1z"/>
<path d="M322.6,14.8v42.1c0,3.9-0.6,7.5-1.8,10.7c-1.2,3.2-2.9,6-5,8.3c-2.2,2.3-4.8,4.1-7.8,5.3c-3.1,1.3-6.4,1.9-10.2,1.9
	c-5.3,0-9.8-1.2-13.6-3.7c-3.8-2.4-6.7-5.8-8.7-10.2l11.6-5.2c0.4,0.9,0.9,1.7,1.5,2.6c0.6,0.9,1.3,1.7,2.2,2.4
	c0.9,0.7,1.8,1.3,3,1.7c1.1,0.5,2.5,0.7,4,0.7c2.6,0,4.7-0.5,6.3-1.6c1.6-1,2.8-2.3,3.6-3.8c0.9-1.5,1.4-3.1,1.7-4.8
	c0.3-1.6,0.4-3.1,0.4-4.4V14.8H322.6z"/>
<path d="M378.4,14.8v42.1c0,3.9-0.6,7.5-1.8,10.7c-1.2,3.2-2.9,6-5,8.3c-2.2,2.3-4.8,4.1-7.8,5.3c-3.1,1.3-6.4,1.9-10.2,1.9
	c-5.3,0-9.8-1.2-13.6-3.7c-3.8-2.4-6.7-5.8-8.7-10.2L343,64c0.4,0.9,0.9,1.7,1.5,2.6c0.6,0.9,1.3,1.7,2.2,2.4c0.9,0.7,1.8,1.3,3,1.7
	c1.1,0.5,2.5,0.7,4,0.7c2.6,0,4.7-0.5,6.3-1.6c1.6-1,2.8-2.3,3.6-3.8c0.9-1.5,1.4-3.1,1.7-4.8c0.3-1.6,0.4-3.1,0.4-4.4V14.8H378.4z"
	/>
<path d="M412.9,82.9c-3.2,0-6.2-0.6-8.9-1.7c-2.7-1.1-5.1-2.7-7.2-4.7c-2-2-3.6-4.3-4.8-7c-1.2-2.7-1.7-5.6-1.7-8.7
	c0-2.1,0.3-4.1,1-6.2c0.7-2,1.6-3.9,2.8-5.6s2.7-3.3,4.3-4.5c1.7-1.3,3.5-2.2,5.5-2.7c-1-0.5-2-1.3-2.9-2.1c-0.9-0.9-1.7-1.9-2.3-3
	c-0.7-1.1-1.2-2.2-1.6-3.4c-0.4-1.2-0.6-2.3-0.6-3.5c0-2.2,0.4-4.3,1.3-6.2c0.9-1.9,2-3.5,3.5-4.9c1.5-1.4,3.3-2.5,5.3-3.4
	c2-0.8,4.2-1.3,6.4-1.3c2.2,0,4.4,0.4,6.4,1.2c2,0.8,3.8,1.9,5.3,3.3c1.5,1.4,2.7,3.1,3.5,5c0.9,2,1.3,4.1,1.3,6.3h-7
	c0-1.3-0.2-2.6-0.6-3.8c-0.4-1.2-1-2.3-1.7-3.2c-0.8-0.9-1.8-1.6-2.9-2.1c-1.2-0.5-2.5-0.8-4.1-0.8c-1.6,0-3,0.3-4.2,0.8
	c-1.2,0.5-2.2,1.3-3,2.2c-0.8,0.9-1.4,2-1.8,3.1c-0.4,1.2-0.6,2.4-0.6,3.6s0.2,2.4,0.7,3.6c0.5,1.1,1.2,2.2,2.1,3.1
	c0.9,0.9,2,1.6,3.3,2.1c1.3,0.5,2.6,0.8,4.1,0.8v6c-2.6,0-5,0.4-7,1.2c-2,0.8-3.8,1.9-5.2,3.3c-1.4,1.4-2.5,3.1-3.2,4.9
	c-0.7,1.9-1.1,3.9-1.1,6.1c0,2.2,0.4,4.3,1.2,6.2c0.8,2,1.8,3.7,3.2,5.1c1.4,1.5,3,2.6,4.9,3.5c1.9,0.8,4,1.3,6.3,1.3
	c2.2,0,4.3-0.4,6.2-1.2c1.9-0.8,3.5-1.9,4.9-3.2c1.4-1.4,2.5-3,3.3-4.8c0.8-1.8,1.3-3.8,1.4-5.9h-6.4v-6h19.4v6h-6
	c-0.1,3-0.8,5.8-2,8.4c-1.2,2.6-2.8,4.8-4.9,6.7s-4.4,3.4-7,4.5C418.8,82.3,416,82.9,412.9,82.9z"/>
<path d="M472.8,82.7c-2.7,0-5.4-0.3-7.9-1c-2.5-0.7-4.8-1.6-6.9-2.8c-2.1-1.2-3.9-2.7-5.4-4.4s-2.7-3.7-3.4-5.8
	c-0.5-1.6-0.9-3.3-1.1-5.2c-0.2-1.9-0.3-3.8-0.3-5.8V14.9h7V58c0,1.3,0,2.7,0.1,4.1c0.1,1.4,0.3,2.6,0.7,3.8c0.5,1.6,1.3,3,2.4,4.3
	c1.1,1.3,2.4,2.5,3.8,3.4c1.5,1,3.2,1.7,5,2.3c1.9,0.6,3.8,0.8,5.9,0.8c2.1,0,4.1-0.3,6-0.8c1.9-0.6,3.6-1.3,5.1-2.3
	c1.5-1,2.8-2.1,3.8-3.4c1.1-1.3,1.8-2.8,2.2-4.3c0.3-1.2,0.5-2.5,0.6-3.9s0.1-2.7,0.1-4V14.9h6.9v42.6c0,2-0.1,3.9-0.2,5.8
	c-0.2,1.9-0.5,3.6-1,5.2c-0.7,2.1-1.9,4.1-3.4,5.9c-1.5,1.8-3.3,3.3-5.4,4.5c-2.1,1.3-4.4,2.2-6.9,2.9
	C478.2,82.4,475.5,82.7,472.8,82.7z"/>
<path d="M509.7,12.6l30.1,56.3l29.8-56.3l7.5,69.3h-6.9l-5.1-46.4l-25.4,48.1l-25.6-48.2l-4.9,46.5h-7L509.7,12.6z"/>
<path d="M581.7,14.9h23.9c2.1,0,4.2,0.2,6.2,0.5c2,0.3,3.9,0.9,5.6,1.8c3.2,1.6,5.8,3.9,7.8,7.1c2,3.1,3,6.8,3,11.1
	c0,3-0.5,5.8-1.4,8.3c-1,2.5-2.2,4.6-3.7,6.4c-1.5,1.8-3.2,3.2-5.1,4.2c-1.9,1-3.8,1.6-5.7,1.8c2.8,4.4,5.6,8.7,8.4,13
	c2.7,4.3,5.5,8.6,8.2,12.9h-8.3c-2.7-4.2-5.4-8.4-8-12.6c-2.7-4.2-5.3-8.5-8-12.7h-15.8v25.4h-7V14.9z M605.4,50.5
	c1.4,0,2.7,0,3.9-0.1c1.2-0.1,2.5-0.3,3.9-0.7c1.2-0.4,2.2-1,3.2-1.9c1-0.9,1.8-2,2.5-3.2c0.7-1.2,1.3-2.6,1.7-4.2
	c0.4-1.6,0.6-3.2,0.6-4.8c0-3.1-0.6-5.8-1.8-7.9c-1.2-2.1-2.8-3.8-4.9-4.9c-1.2-0.7-2.6-1.1-4.1-1.4c-1.5-0.3-3.1-0.4-4.8-0.4h-16.9
	v29.6H605.4z"/>
<path d="M659.6,11.8l29.8,70h-7.6l-7.6-18h-29.4l-7.7,18h-7.6L659.6,11.8z M671.7,57.9l-12.2-29.2l-12.1,29.2H671.7z"/>
</svg>
