<?xml version="1.0" encoding="utf-8"?>
<!-- Generator: Adobe Illustrator 19.2.1, SVG Export Plug-In . SVG Version: 6.00 Build 0)  -->
<svg version="1.1" id="Layer_1" xmlns="http://www.w3.org/2000/svg" xmlns:xlink="http://www.w3.org/1999/xlink" x="0px" y="0px"
	 viewBox="0 0 691.8 106" style="enable-background:new 0 0 691.8 106;" xml:space="preserve">
<style type="text/css">
	.st0{fill:#505050;}
	.st1{fill:#373737;}
	.st2{fill:#FFE132;}
	.st3{fill:#FFCC00;}
	.st4{fill:#646464;}
	.st5{fill:#FAC80F;}
	.st6{fill:#FFFFFF;}
	.st7{font-family:'CaptainMarvel';}
	.st8{font-size:91.6451px;}
	.st9{font-family:'Pasajero';}
</style>
<path class="st0" d="M5.9,15v75.4c0,1.4,1,2.7,2.4,3l12.2,3.1L33,90.2l14.6,13.1l10.7,2.7c0.2,0.1,0.5,0.1,0.8,0.1s0.5,0,0.8-0.1
	l50-12.5c1.4-0.3,2.4-1.6,2.4-3V15L59,28.3L5.9,15z"/>
<path class="st1" d="M59,28.3v77.8c0.3,0,0.5,0,0.8-0.1l50-12.5c1.4-0.3,2.4-1.6,2.4-3V15L59,28.3z"/>
<path class="st2" d="M5.9,23.5v18.9l52.4,13.1c0.2,0.1,0.5,0.1,0.8,0.1s0.5,0,0.8-0.1l52.4-13.1V23.5L59,36.8L5.9,23.5z"/>
<path class="st3" d="M59.8,55.5l52.4-13.1V23.5L59,36.8v18.9C59.3,55.6,59.6,55.6,59.8,55.5z"/>
<path class="st4" d="M59,30.6c-0.3,0-0.5,0-0.8-0.1L8.3,18c-1.4-0.3-2.4-1.6-2.4-3s1-2.7,2.4-3l50-12.5c0.5-0.1,1-0.1,1.5,0l50,12.5
	c1.4,0.3,2.4,1.6,2.4,3s-1,2.7-2.4,3l-50,12.5C59.6,30.6,59.3,30.6,59,30.6z"/>
<path class="st0" d="M59.8,30.5l50-12.5c1.4-0.3,2.4-1.6,2.4-3s-1-2.7-2.4-3l-50-12.5c-0.2-0.1-0.5-0.1-0.8-0.1v31.3
	C59.3,30.6,59.6,30.6,59.8,30.5z"/>
<path class="st2" d="M45.2,69.2L24.4,64c-0.9-0.2-1.9,0-2.7,0.6c-0.8,0.6-1.2,1.5-1.2,2.5v29.5l27.1,6.8V72.2
	C47.6,70.8,46.6,69.5,45.2,69.2z"/>
<path class="st5" d="M26.7,98.1l14.6,3.6V74.6L26.7,71V98.1z"/>
<text transform="matrix(1 0 0 1 130.998 81.8291)"><tspan x="0" y="0" class="st6 st7 st8">hAJJ</tspan><tspan x="255.9" y="0" class="st6 st9 st8">&amp;umra</tspan></text>
</svg>
