<?xml version="1.0" encoding="utf-8"?>
<!-- Generator: Adobe Illustrator 19.2.1, SVG Export Plug-In . SVG Version: 6.00 Build 0)  -->
<svg version="1.1" id="Layer_1" xmlns="http://www.w3.org/2000/svg" xmlns:xlink="http://www.w3.org/1999/xlink" x="0px" y="0px"
	 viewBox="0 0 691.8 106" style="enable-background:new 0 0 691.8 106;" xml:space="preserve">
<style type="text/css">
	.st0{fill:#FFCC00;}
	.st1{fill:#505050;}
	.st2{fill:#373737;}
	.st3{fill:#FFE132;}
	.st4{fill:#646464;}
	.st5{fill:#FAC80F;}
</style>
<g>
	<path d="M185.4,59.6c-2.7-0.8-7.9-2.1-12.7-5.5c-6.7-4.7-10.4-11.5-10.8-19.9c-0.4-7.1,1.8-13.2,6.1-18c6.2-6.8,15.2-8.7,19.5-8.7
		c12.2,0,19,4.7,25.1,8.8l2.7,1.9l-8.7,15l-3-2c-5.4-3.7-8.8-6-16.1-6c-1.1,0-5.3,0.9-7.4,3.3c-0.7,0.8-1.6,2.1-1.4,5
		c0.1,4.5,3.1,7.1,10.8,9.1c1,0.3,1.7,0.5,2.4,0.8c8,2.9,14.2,6.8,18.5,11.7c4.3,5,6.6,11,6.6,17.3c0,6.2-2.5,12.6-6.7,17.5
		c-4.9,5.8-11.7,9.1-19.2,9.1c-3.7,0-8.7-0.3-14.7-2.1c-7.5-2.5-14.2-6.9-20-13.4l12.2-12.1c8.8,10,18.8,10,22.5,10
		c6.9,0,9.2-6.7,9.2-8.9c0-4.8-5.1-9.2-13.9-12.3l-0.4-0.1L185.4,59.6z"/>
	<path d="M289.1,8.6v17.6h-23.2V97h-16.7V26.3h-23.3V8.6L289.1,8.6z"/>
	<path d="M346.8,80.6h-34.7L304.3,97h-18.8l42.7-88.3h4.9L372.7,97h-18.5L346.8,80.6z M338.9,63l-8.7-19.7L320.8,63H338.9z"/>
	<path d="M434.8,30.1C418.6,19,394.1,29.3,394.1,53c0,24.8,25.9,34.8,41.7,22.2l10.8,13c-7.5,6.6-17.2,10.6-27.7,10.6
		c-23.9,0-43.4-20.5-43.4-45.7S395,7.4,418.9,7.4c10,0,19.4,3.7,26.8,9.7L434.8,30.1z"/>
	<path d="M481.8,56.5l-6.5,6.9v33.4h-16.7V8.6h16.7v28.5l24.5-28.5h22.6l-29.3,34.5l30,53.7h-20L481.8,56.5z"/>
	<path d="M561,81.9c5.6,0,10.3-4.7,10.3-10.6s-4.7-10.7-10.3-10.7h-27.4v-52h22.8c13.5,0,24.5,11.6,24.5,25.8
		c0,5.4-1.6,10.3-4.3,14.5c6.1,4.9,9.9,12.6,9.9,21.2c0,14.9-11.4,26.7-25.3,26.7h-6v-15L561,81.9L561,81.9z M555.7,43.5
		c4.7,0,9.7-4,9.7-10.2s-5-10-9.7-10h-7.3v20.2H555.7z"/>
	<path d="M601.1,96.9V8.6h16.7v88.2h-16.7V96.9z"/>
	<path d="M691.8,8.6v17.6h-23.2V97h-16.7V26.3h-23.3V8.6L691.8,8.6z"/>
</g>
<path class="st0" d="M549.1,96.9h-15.5v-15h15.5V96.9z"/>
<path class="st1" d="M5.9,15v75.4c0,1.4,1,2.7,2.4,3l12.2,3.1L33,90.2l14.6,13.1l10.7,2.7c0.2,0.1,0.5,0.1,0.8,0.1s0.5,0,0.8-0.1
	l50-12.5c1.4-0.3,2.4-1.6,2.4-3V15L59,28.3L5.9,15z"/>
<path class="st2" d="M59,28.3v77.8c0.3,0,0.5,0,0.8-0.1l50-12.5c1.4-0.3,2.4-1.6,2.4-3V15L59,28.3z"/>
<path class="st3" d="M5.9,23.5v18.9l52.4,13.1c0.2,0.1,0.5,0.1,0.8,0.1s0.5,0,0.8-0.1l52.4-13.1V23.5L59,36.8L5.9,23.5z"/>
<path class="st0" d="M59.8,55.5l52.4-13.1V23.5L59,36.8v18.9C59.3,55.6,59.6,55.6,59.8,55.5z"/>
<path class="st4" d="M59,30.6c-0.3,0-0.5,0-0.8-0.1L8.3,18c-1.4-0.3-2.4-1.6-2.4-3s1-2.7,2.4-3l50-12.5c0.5-0.1,1-0.1,1.5,0l50,12.5
	c1.4,0.3,2.4,1.6,2.4,3s-1,2.7-2.4,3l-50,12.5C59.6,30.6,59.3,30.6,59,30.6z"/>
<path class="st1" d="M59.8,30.5l50-12.5c1.4-0.3,2.4-1.6,2.4-3s-1-2.7-2.4-3l-50-12.5c-0.2-0.1-0.5-0.1-0.8-0.1v31.3
	C59.3,30.6,59.6,30.6,59.8,30.5z"/>
<path class="st3" d="M45.2,69.2l-20.8-5.2c-0.9-0.2-1.9,0-2.7,0.6c-0.8,0.6-1.2,1.5-1.2,2.5v29.5l27.1,6.8V72.2
	C47.6,70.8,46.6,69.5,45.2,69.2z"/>
<path class="st5" d="M26.7,98.1l14.6,3.6V74.6L26.7,71V98.1z"/>
</svg>
